<?xml version="1.0" encoding="UTF-8"?>
<svg version="1.1" xmlns="http://www.w3.org/2000/svg" xmlns:xlink="http://www.w3.org/1999/xlink">
<defs>

</defs>
<symbol id="i-cart" viewBox="0 0 50 50" fill="none" xmlns="http://www.w3.org/2000/svg"><path fill-rule="evenodd" clip-rule="evenodd" d="M20 18a5 5 0 0110 0v2h4l3 17H13l3-17h4v-2zm1 2h8v-2a4 4 0 00-8 0v2zm-4.179 1h16.341l2.658 15H14.208l2.613-15z" fill="#000"/></symbol>
<symbol id="i-header-search" viewBox="0 0 50 50" xmlns="http://www.w3.org/2000/svg"><path fill-rule="evenodd" clip-rule="evenodd" d="M17.483 17.735a9.463 9.463 0 000 13.435c3.61 3.61 9.013 4.072 13.075.345l4.605 4.605.707-.707-4.605-4.605c3.725-4.061 3.263-9.464-.347-13.073a9.463 9.463 0 00-13.435 0zm.707 12.728a8.463 8.463 0 010-12.021 8.463 8.463 0 0112.021 0c3.354 3.353 3.68 8.34 0 12.02-3.68 3.681-8.667 3.354-12.02 0z"/></symbol>
<symbol id="i-profile" viewBox="0 0 50 50" fill="none" xmlns="http://www.w3.org/2000/svg"><path fill-rule="evenodd" clip-rule="evenodd" d="M20.5 20c0 2.776 2.224 5 5 5 2.758 0 5-1.956 5-5s-2.242-5-5-5c-2.776 0-5 2.224-5 5zm5 4c-2.224 0-4-1.776-4-4s1.776-4 4-4c2.242 0 4 1.544 4 4s-1.758 4-4 4zM25.5 26.5c-3.74 0-6.137 1.393-7.588 3.185C16.477 31.456 16 33.574 16 35v.5h19V35c0-1.426-.477-3.544-1.911-5.315-1.452-1.792-3.85-3.185-7.589-3.185zm6.812 3.815c1.105 1.364 1.567 2.973 1.667 4.185H17.02c.1-1.212.562-2.82 1.668-4.185 1.248-1.541 3.35-2.815 6.811-2.815 3.46 0 5.563 1.274 6.812 2.815z" fill="#000"/></symbol>
<symbol xmlns="http://www.w3.org/2000/svg" id="i-burger" viewBox="0 0 50 50" fill="none"><path d="M17 19.082h16v1H17v-1zM17 25.082h16v1H17v-1zM17 31.082h16v1H17v-1z" fill="#000"/></symbol>
</svg>
